<?xml version="1.0" encoding="UTF-8"?>
<svg version="1.1" xmlns="http://www.w3.org/2000/svg" width="500" height="500">
<path d="M0 0 C19.76451061 15.59979025 35.64371469 35.68472121 44.4375 59.4375 C45.654375 59.293125 46.87125 59.14875 48.125 59 C48.80949219 58.91878906 49.49398438 58.83757812 50.19921875 58.75390625 C52.44736325 58.46735619 52.44736325 58.46735619 54.66748047 57.93261719 C59.69000077 57.03488484 64.77266237 57.17269654 69.86303711 57.14233398 C71.83796605 57.12531906 73.81260538 57.08146918 75.78710938 57.03710938 C87.86598459 56.95839991 98.84451925 59.51720709 109.5625 65.125 C110.22499756 65.4653125 110.88749512 65.805625 111.57006836 66.15625 C120.53387084 70.90528443 131.40088185 77.35603021 136.4375 86.4375 C136.23706055 88.43359375 136.23706055 88.43359375 135.4375 90.4375 C133.77929688 91.51831055 133.77929688 91.51831055 131.65625 92.32421875 C130.89699219 92.62263672 130.13773437 92.92105469 129.35546875 93.22851562 C128.55753906 93.52435547 127.75960938 93.82019531 126.9375 94.125 C125.36390132 94.73130579 123.79094842 95.33929118 122.21875 95.94921875 C121.1678418 96.34306763 121.1678418 96.34306763 120.09570312 96.74487305 C118.4317921 97.31656192 118.4317921 97.31656192 117.4375 98.4375 C113.34011093 99.02112223 111.76443664 98.6637778 108.31640625 96.27734375 C107.20334234 95.31864392 106.09823766 94.35064884 105 93.375 C87.97894994 79.19801392 68.20071008 75.71423177 46.4375 77.4375 C44.03801722 77.85877978 41.6992577 78.36835499 39.34033203 78.97436523 C36.58028508 79.64613956 34.2506309 79.83937584 31.4375 79.4375 C29.02494839 76.67759148 27.38346668 73.60972296 25.6875 70.375 C12.06384987 45.2875467 -8.49523192 25.91391621 -36.15625 17.3984375 C-62.6424962 9.92640016 -90.00502417 13.08496729 -114.20385742 26.21362305 C-120.21064826 29.63507205 -125.45927562 33.77875 -130.5625 38.4375 C-131.27921875 39.08460938 -131.9959375 39.73171875 -132.734375 40.3984375 C-147.28481014 54.21571118 -155.2090289 71.81388783 -161.5625 90.4375 C-160.3971875 90.54707031 -159.231875 90.65664062 -158.03125 90.76953125 C-153.8038136 91.30261247 -149.99293738 92.50371384 -146.0625 94.125 C-145.41321533 94.38829102 -144.76393066 94.65158203 -144.0949707 94.92285156 C-138.00245355 97.4943834 -133.20767373 100.79232627 -128.5625 105.4375 C-128.9375 107.5625 -128.9375 107.5625 -129.5625 109.4375 C-130.88121094 109.47488281 -132.19992188 109.51226562 -133.55859375 109.55078125 C-161.60690391 110.50700349 -192.6278012 115.94371881 -212.8984375 137.3671875 C-220.89345358 147.3140385 -224.61802842 157.72624289 -223.5625 170.4375 C-221.80751532 184.42794122 -213.77266197 194.50518383 -203 203.0625 C-179.1302632 220.2319598 -151.33777337 221.71276952 -122.9375 221.8515625 C-120.49413423 221.8703088 -118.0507747 221.88988468 -115.60742188 221.9102478 C-109.22900092 221.96120959 -102.85055906 222.00102601 -96.4720459 222.03839111 C-89.94225039 222.07865822 -83.41253913 222.12964607 -76.8828125 222.1796875 C-64.10943553 222.27602017 -51.33600993 222.36092429 -38.5625 222.4375 C-38.26682129 221.34187744 -37.97114258 220.24625488 -37.66650391 219.11743164 C-34.70575607 209.24849043 -27.19863937 202.33882412 -18.5625 197.26171875 C-8.36282806 191.78337933 1.96747137 190.96318649 13.125 194.0625 C18.81485684 195.98156414 23.02866442 198.39850051 27.4375 202.4375 C28.05238281 202.96214844 28.66726563 203.48679687 29.30078125 204.02734375 C36.5150601 210.59280094 40.98937028 219.89960752 41.65625 229.62890625 C41.94622618 240.82923628 40.01424979 249.34031915 33.4375 258.4375 C32.32375 259.984375 32.32375 259.984375 31.1875 261.5625 C23.24063975 269.87058117 13.31801977 274.16339496 1.84375 274.5625 C-11.97148954 274.12041233 -22.1718118 269.83591628 -31.890625 259.55078125 C-33.45875712 257.56863293 -34.47583921 255.70414168 -35.5625 253.4375 C-36.5862076 253.43391747 -36.5862076 253.43391747 -37.63059616 253.43026257 C-54.32811931 253.37081935 -71.02548404 253.29508586 -87.7228508 253.20178509 C-95.79796788 253.15704579 -103.873043 253.11758246 -111.94824219 253.09106445 C-118.99632518 253.06790541 -126.0442729 253.03431272 -133.0922482 252.98879844 C-136.81526945 252.96510426 -140.53815875 252.94622136 -144.26125336 252.93988609 C-175.90401468 252.87887229 -208.67905721 251.02923662 -232.5625 227.4375 C-249.42760898 208.78404368 -255.86984431 184.5199084 -254.73291016 159.61376953 C-253.36953426 142.20240464 -245.30073259 126.90105409 -234.5625 113.4375 C-234.12292969 112.85742188 -233.68335938 112.27734375 -233.23046875 111.6796875 C-223.07314654 98.70277418 -206.45727859 89.31878315 -190.5625 85.4375 C-187 85.25 -187 85.25 -184.5625 85.4375 C-184.45365479 84.83091553 -184.34480957 84.22433105 -184.23266602 83.59936523 C-177.51732032 47.96111811 -158.58804035 16.07459341 -128.5546875 -4.63671875 C-115.42437796 -13.10528449 -101.81947358 -18.4163835 -86.5625 -21.5625 C-85.18384766 -21.85253906 -85.18384766 -21.85253906 -83.77734375 -22.1484375 C-53.92361063 -25.99351127 -24.16851512 -17.73152466 0 0 Z M-16.296875 217.23828125 C-21.00054319 223.00587439 -22.83225993 228.34703477 -22.5 235.8125 C-21.72140741 242.25358418 -19.72154049 247.7288049 -14.69921875 252.03515625 C-7.25796471 256.99117593 -0.26444322 258.15765157 8.4375 256.4375 C14.47582539 254.30632633 19.61830066 250.00543674 22.546875 244.26171875 C25.063872 237.38746752 25.53226782 231.55270565 22.6875 224.75 C20.10240757 219.50775682 17.20674372 214.99531391 11.88671875 212.16796875 C2.48535744 209.36405397 -9.27778815 209.95044557 -16.296875 217.23828125 Z " fill="#39B6FF" transform="translate(301.5625,114.5625)"/>
<path d="M0 0 C19.76451061 15.59979025 35.64371469 35.68472121 44.4375 59.4375 C45.654375 59.293125 46.87125 59.14875 48.125 59 C48.80949219 58.91878906 49.49398438 58.83757812 50.19921875 58.75390625 C52.44736325 58.46735619 52.44736325 58.46735619 54.66748047 57.93261719 C59.69000077 57.03488484 64.77266237 57.17269654 69.86303711 57.14233398 C71.83796605 57.12531906 73.81260538 57.08146918 75.78710938 57.03710938 C87.86598459 56.95839991 98.84451925 59.51720709 109.5625 65.125 C110.22499756 65.4653125 110.88749512 65.805625 111.57006836 66.15625 C120.53387084 70.90528443 131.40088185 77.35603021 136.4375 86.4375 C136.23706055 88.43359375 136.23706055 88.43359375 135.4375 90.4375 C133.77929688 91.51831055 133.77929688 91.51831055 131.65625 92.32421875 C130.89699219 92.62263672 130.13773437 92.92105469 129.35546875 93.22851562 C128.55753906 93.52435547 127.75960938 93.82019531 126.9375 94.125 C125.36390132 94.73130579 123.79094842 95.33929118 122.21875 95.94921875 C121.1678418 96.34306763 121.1678418 96.34306763 120.09570312 96.74487305 C118.4317921 97.31656192 118.4317921 97.31656192 117.4375 98.4375 C113.34011093 99.02112223 111.76443664 98.6637778 108.31640625 96.27734375 C107.20334234 95.31864392 106.09823766 94.35064884 105 93.375 C87.97894994 79.19801392 68.20071008 75.71423177 46.4375 77.4375 C44.03801722 77.85877978 41.6992577 78.36835499 39.34033203 78.97436523 C36.58028508 79.64613956 34.2506309 79.83937584 31.4375 79.4375 C29.02494839 76.67759148 27.38346668 73.60972296 25.6875 70.375 C12.06384987 45.2875467 -8.49523192 25.91391621 -36.15625 17.3984375 C-62.6424962 9.92640016 -90.00502417 13.08496729 -114.20385742 26.21362305 C-120.21064826 29.63507205 -125.45927562 33.77875 -130.5625 38.4375 C-131.27921875 39.08460938 -131.9959375 39.73171875 -132.734375 40.3984375 C-147.28481014 54.21571118 -155.2090289 71.81388783 -161.5625 90.4375 C-160.3971875 90.54707031 -159.231875 90.65664062 -158.03125 90.76953125 C-153.8038136 91.30261247 -149.99293738 92.50371384 -146.0625 94.125 C-145.41321533 94.38829102 -144.76393066 94.65158203 -144.0949707 94.92285156 C-138.00245355 97.4943834 -133.20767373 100.79232627 -128.5625 105.4375 C-128.9375 107.5625 -128.9375 107.5625 -129.5625 109.4375 C-130.88121094 109.47488281 -132.19992188 109.51226562 -133.55859375 109.55078125 C-161.60690391 110.50700349 -192.6278012 115.94371881 -212.8984375 137.3671875 C-220.89345358 147.3140385 -224.61802842 157.72624289 -223.5625 170.4375 C-221.80751532 184.42794122 -213.77266197 194.50518383 -203 203.0625 C-179.1302632 220.2319598 -151.33777337 221.71276952 -122.9375 221.8515625 C-120.49413423 221.8703088 -118.0507747 221.88988468 -115.60742188 221.9102478 C-109.22900092 221.96120959 -102.85055906 222.00102601 -96.4720459 222.03839111 C-89.94225039 222.07865822 -83.41253913 222.12964607 -76.8828125 222.1796875 C-64.10943553 222.27602017 -51.33600993 222.36092429 -38.5625 222.4375 C-38.26682129 221.34187744 -37.97114258 220.24625488 -37.66650391 219.11743164 C-34.70575607 209.24849043 -27.19863937 202.33882412 -18.5625 197.26171875 C-8.36282806 191.78337933 1.96747137 190.96318649 13.125 194.0625 C18.81485684 195.98156414 23.02866442 198.39850051 27.4375 202.4375 C28.05238281 202.96214844 28.66726563 203.48679687 29.30078125 204.02734375 C36.5150601 210.59280094 40.98937028 219.89960752 41.65625 229.62890625 C41.94622618 240.82923628 40.01424979 249.34031915 33.4375 258.4375 C32.32375 259.984375 32.32375 259.984375 31.1875 261.5625 C23.24063975 269.87058117 13.31801977 274.16339496 1.84375 274.5625 C-11.97148954 274.12041233 -22.1718118 269.83591628 -31.890625 259.55078125 C-33.45875712 257.56863293 -34.47583921 255.70414168 -35.5625 253.4375 C-36.5862076 253.43391747 -36.5862076 253.43391747 -37.63059616 253.43026257 C-54.32811931 253.37081935 -71.02548404 253.29508586 -87.7228508 253.20178509 C-95.79796788 253.15704579 -103.873043 253.11758246 -111.94824219 253.09106445 C-118.99632518 253.06790541 -126.0442729 253.03431272 -133.0922482 252.98879844 C-136.81526945 252.96510426 -140.53815875 252.94622136 -144.26125336 252.93988609 C-175.90401468 252.87887229 -208.67905721 251.02923662 -232.5625 227.4375 C-249.42760898 208.78404368 -255.86984431 184.5199084 -254.73291016 159.61376953 C-253.36953426 142.20240464 -245.30073259 126.90105409 -234.5625 113.4375 C-234.12292969 112.85742188 -233.68335938 112.27734375 -233.23046875 111.6796875 C-223.07314654 98.70277418 -206.45727859 89.31878315 -190.5625 85.4375 C-187 85.25 -187 85.25 -184.5625 85.4375 C-184.45365479 84.83091553 -184.34480957 84.22433105 -184.23266602 83.59936523 C-177.51732032 47.96111811 -158.58804035 16.07459341 -128.5546875 -4.63671875 C-115.42437796 -13.10528449 -101.81947358 -18.4163835 -86.5625 -21.5625 C-85.18384766 -21.85253906 -85.18384766 -21.85253906 -83.77734375 -22.1484375 C-53.92361063 -25.99351127 -24.16851512 -17.73152466 0 0 Z M-149.3125 16.3125 C-164.74050944 34.29314372 -182.59186619 62.73271154 -181.5625 87.4375 C-182.20574219 87.45167969 -182.84898437 87.46585937 -183.51171875 87.48046875 C-201.5732227 88.43378636 -217.44146717 98.5121332 -229.5625 111.4375 C-246.03789928 129.80791913 -252.80485616 149.9584824 -251.5625 174.4375 C-249.88309067 195.04474495 -243.29035554 214.07226507 -227.91015625 228.53515625 C-208.37038609 244.36854738 -185.62060364 249.67789688 -160.91381836 249.48413086 C-159.5447059 249.47733 -158.1755904 249.47112062 -156.80647278 249.4654541 C-153.87203173 249.45306054 -150.93761224 249.43847806 -148.00318718 249.42277336 C-143.35893144 249.39993913 -138.7147561 249.39437346 -134.07044983 249.39344788 C-132.89175989 249.39317523 -132.89175989 249.39317523 -131.68925804 249.39289707 C-128.45251294 249.3924477 -125.21576798 249.39252909 -121.97902286 249.3927325 C-112.80757658 249.39246758 -103.63681323 249.37558286 -94.46557617 249.31079102 C-87.16359793 249.25932277 -79.86250055 249.24315723 -72.5603705 249.26825243 C-68.70137491 249.2801797 -64.84426255 249.27435382 -60.9855175 249.22556877 C-57.35740505 249.1800763 -53.73229065 249.18148657 -50.10410881 249.21831512 C-48.1456369 249.22606568 -46.18716306 249.18433416 -44.22915649 249.14094543 C-35.74414735 249.29040628 -35.74414735 249.29040628 -32.32614326 252.60846138 C-30.48707581 255.27101135 -30.48707581 255.27101135 -29.03960514 257.91416264 C-25.41089837 264.11307909 -18.27796447 268.38485674 -11.62109375 270.7734375 C-0.09003924 273.27698701 11.11080086 272.30124084 21.4375 266.4375 C22.11039062 266.0765625 22.78328125 265.715625 23.4765625 265.34375 C30.59982053 260.95055122 36.09871993 252.37202794 38.4375 244.4375 C40.10516007 232.70247821 39.52160436 221.25471779 32.4375 211.4375 C31.90769531 210.68339844 31.37789063 209.92929687 30.83203125 209.15234375 C25.4286118 202.28576559 17.85540147 197.66875099 9.4375 195.4375 C6.49501436 195.11787352 3.58332973 195.0563291 0.625 195.0625 C-0.57431152 195.06491699 -0.57431152 195.06491699 -1.79785156 195.06738281 C-7.81828097 195.19265491 -12.4426381 196.1239714 -17.5625 199.4375 C-18.573125 200.015 -19.58375 200.5925 -20.625 201.1875 C-28.87191039 207.50428243 -35.04053069 213.88714961 -36.5625 224.4375 C-51.52391926 224.37665857 -66.48518258 224.29894637 -81.44641018 224.20178509 C-88.39500335 224.15704218 -95.34354771 224.11757968 -102.29223633 224.09106445 C-109.00971462 224.06541602 -115.72694404 224.02436969 -122.44429207 223.97431374 C-124.99522209 223.95774786 -127.54618999 223.94617009 -130.09716606 223.93988609 C-158.89278451 223.86183752 -188.95253863 220.40798091 -210.72143555 199.45898438 C-217.09866748 193.04237987 -221.1815913 186.79441278 -224.5625 178.4375 C-225.0575 177.4475 -225.0575 177.4475 -225.5625 176.4375 C-225.8569656 173.09033994 -225.84061163 169.7335971 -225.875 166.375 C-225.90400391 165.45783203 -225.93300781 164.54066406 -225.96289062 163.59570312 C-226.04184242 155.0263972 -223.40878672 148.69354493 -218.5625 141.6875 C-218.088125 140.99140625 -217.61375 140.2953125 -217.125 139.578125 C-216.609375 138.87171875 -216.09375 138.1653125 -215.5625 137.4375 C-214.97984375 136.63570312 -214.3971875 135.83390625 -213.796875 135.0078125 C-199.5002795 118.56172886 -174.63848211 110.1644224 -153.5625 108.4375 C-145.56898675 107.95593073 -137.56641843 107.67823407 -129.5625 107.4375 C-132.9364683 103.57041326 -136.65190563 101.58216373 -141.1875 99.375 C-141.8988208 99.02501953 -142.6101416 98.67503906 -143.34301758 98.31445312 C-150.25298931 94.98600773 -156.78873806 92.21967129 -164.5625 92.4375 C-159.33823039 75.33989036 -153.08838375 60.32410693 -141.5625 46.4375 C-140.86511719 45.57640625 -140.16773438 44.7153125 -139.44921875 43.828125 C-127.2024752 29.40965545 -110.70043482 19.51612175 -92.5625 14.4375 C-91.84707031 14.22480469 -91.13164062 14.01210937 -90.39453125 13.79296875 C-66.03667381 7.03500032 -37.68088178 11.57781896 -15.6862793 23.38037109 C-9.12435738 27.11250426 -3.26361714 31.51336646 2.4375 36.4375 C3.18386719 37.03949219 3.93023437 37.64148438 4.69921875 38.26171875 C17.21289621 48.67886386 25.46482874 62.93434377 32.4375 77.4375 C33.27667969 77.2209375 34.11585938 77.004375 34.98046875 76.78125 C49.80297251 73.34967357 65.89949052 72.30279878 80.4375 77.4375 C82.03271484 77.96537109 82.03271484 77.96537109 83.66015625 78.50390625 C94.05131628 82.18638752 102.85661215 87.35042519 110.5859375 95.25 C112.39196391 96.66312508 112.39196391 96.66312508 114.71875 96.3125 C118.09623502 95.22549333 121.3264679 93.88179222 124.5625 92.4375 C131.15685484 89.53104839 131.15685484 89.53104839 134.4375 88.4375 C129.78496471 76.36910543 112.48282028 69.10941048 101.5703125 64.12890625 C82.86170783 56.55108863 62.44963239 58.59034743 43.4375 63.4375 C43.04820312 62.468125 42.65890625 61.49875 42.2578125 60.5 C36.55777915 46.69653509 29.18902258 33.81089744 19.4375 22.4375 C18.27541016 21.05884766 18.27541016 21.05884766 17.08984375 19.65234375 C2.96802989 3.32041403 -14.51254449 -8.08640952 -34.9375 -15.0625 C-35.61337158 -15.29372559 -36.28924316 -15.52495117 -36.9855957 -15.76318359 C-78.00808281 -28.70834126 -120.66727206 -14.37525724 -149.3125 16.3125 Z " fill="#F7FCFF" transform="translate(301.5625,114.5625)"/>
<path d="M0 0 C5.41668801 4.22765894 10.35565831 9.3616746 12.4375 16 C13.52991208 25.80630375 12.01153051 33.37602452 6.1875 41.3125 C0.82601756 46.55213057 -5.65652716 49.12183143 -13.125 49.375 C-20.61564398 49.28453329 -26.17933685 47.16975397 -31.66796875 42.02734375 C-38.30242536 34.70892254 -39.19338664 28.90449454 -38.9296875 19.21484375 C-38.51575165 12.55517375 -36.19644046 8.46521829 -31.3671875 3.9453125 C-23.33709961 -2.65367062 -9.57474659 -5.62776033 0 0 Z M-30.296875 6.80078125 C-35.00054319 12.56837439 -36.83225993 17.90953477 -36.5 25.375 C-35.72140741 31.81608418 -33.72154049 37.2913049 -28.69921875 41.59765625 C-21.25796471 46.55367593 -14.26444322 47.72015157 -5.5625 46 C0.47582539 43.86882633 5.61830066 39.56793674 8.546875 33.82421875 C11.063872 26.94996752 11.53226782 21.11520565 8.6875 14.3125 C6.10240757 9.07025682 3.20674372 4.55781391 -2.11328125 1.73046875 C-11.51464256 -1.07344603 -23.27778815 -0.48705443 -30.296875 6.80078125 Z " fill="#F6FBFF" transform="translate(315.5625,325)"/>
<path d="M0 0 C0.33 0 0.66 0 1 0 C2.35700978 11.79364864 3.19772817 20.85185172 -4 31 C-4.46921875 31.68320312 -4.9384375 32.36640625 -5.421875 33.0703125 C-9.098148 37.84120611 -13.80846922 41.03724709 -19 44 C-19.60328125 44.35449219 -20.2065625 44.70898438 -20.828125 45.07421875 C-27.43006119 48.24601853 -34.95349945 46.76153587 -42 46 C-42 45.67 -42 45.34 -42 45 C-41.20078125 44.98582031 -40.4015625 44.97164063 -39.578125 44.95703125 C-28.72871339 44.48587136 -20.47597861 41.80690748 -12 35 C-11.34 35 -10.68 35 -10 35 C-9.7215625 34.42121094 -9.443125 33.84242188 -9.15625 33.24609375 C-7.69223612 30.40214787 -5.96448314 27.77480189 -4.21875 25.09765625 C-1.04445221 19.6342014 -0.60994328 14.8890236 -0.375 8.6875 C-0.33632813 7.85154297 -0.29765625 7.01558594 -0.2578125 6.15429688 C-0.16404841 4.10320741 -0.08095755 2.05163485 0 0 Z " fill="#F3FAFF" transform="translate(340,341)"/>
<path d="M0 0 C0.33 0 0.66 0 1 0 C1.19696449 3.10364229 1.38093262 6.20792192 1.5625 9.3125 C1.61857422 10.19357422 1.67464844 11.07464844 1.73242188 11.98242188 C1.78076172 12.82998047 1.82910156 13.67753906 1.87890625 14.55078125 C1.9260376 15.33106689 1.97316895 16.11135254 2.02172852 16.9152832 C2 19 2 19 1 22 C0.01 22.33 -0.98 22.66 -2 23 C-1.76990234 22.05060547 -1.76990234 22.05060547 -1.53515625 21.08203125 C-0.81937036 16.95973151 -0.63849837 12.86233493 -0.4375 8.6875 C-0.39431641 7.85154297 -0.35113281 7.01558594 -0.30664062 6.15429688 C-0.20114693 4.10303065 -0.10012685 2.0515352 0 0 Z " fill="#D4EFFF" transform="translate(340,341)"/>
<path d="M0 0 C0.33 0.66 0.66 1.32 1 2 C2.60875 1.690625 2.60875 1.690625 4.25 1.375 C7.87619096 1.0123809 9.08291076 1.01637931 12 3 C12 3.66 12 4.32 12 5 C6.06 4.01 6.06 4.01 0 3 C0 2.01 0 1.02 0 0 Z " fill="#E1F4FF" transform="translate(137,204)"/>
<path d="M0 0 C-0.33 0.66 -0.66 1.32 -1 2 C-5.95 1.67 -10.9 1.34 -16 1 C-16 0.67 -16 0.34 -16 0 C-13.89651926 -0.19504458 -11.79217415 -0.38078496 -9.6875 -0.5625 C-8.51574219 -0.66691406 -7.34398437 -0.77132813 -6.13671875 -0.87890625 C-3 -1 -3 -1 0 0 Z " fill="#D9F1FF" transform="translate(314,386)"/>
</svg>
